<svg width="1280" height="720" xmlns="http://www.w3.org/2000/svg" xmlns:xlink="http://www.w3.org/1999/xlink" overflow="hidden"><defs><filter id="fx0" x="-10%" y="-10%" width="120%" height="120%" filterUnits="userSpaceOnUse" primitiveUnits="userSpaceOnUse"><feComponentTransfer color-interpolation-filters="sRGB"><feFuncR type="discrete" tableValues="0 0"/><feFuncG type="discrete" tableValues="0 0"/><feFuncB type="discrete" tableValues="0 0"/><feFuncA type="linear" slope="0.501961" intercept="0"/></feComponentTransfer><feGaussianBlur stdDeviation="1.77778 1.77778"/></filter><filter id="fx1" x="-10%" y="-10%" width="120%" height="120%" filterUnits="userSpaceOnUse" primitiveUnits="userSpaceOnUse"><feComponentTransfer color-interpolation-filters="sRGB"><feFuncR type="discrete" tableValues="0 0"/><feFuncG type="discrete" tableValues="0 0"/><feFuncB type="discrete" tableValues="0 0"/><feFuncA type="linear" slope="0.501961" intercept="0"/></feComponentTransfer><feGaussianBlur stdDeviation="1.77778 1.77778"/></filter><filter id="fx2" x="-10%" y="-10%" width="120%" height="120%" filterUnits="userSpaceOnUse" primitiveUnits="userSpaceOnUse"><feComponentTransfer color-interpolation-filters="sRGB"><feFuncR type="discrete" tableValues="0 0"/><feFuncG type="discrete" tableValues="0 0"/><feFuncB type="discrete" tableValues="0 0"/><feFuncA type="linear" slope="0.4" intercept="0"/></feComponentTransfer><feGaussianBlur stdDeviation="1.77778 1.77778"/></filter><filter id="fx3" x="-10%" y="-10%" width="120%" height="120%" filterUnits="userSpaceOnUse" primitiveUnits="userSpaceOnUse"><feComponentTransfer color-interpolation-filters="sRGB"><feFuncR type="discrete" tableValues="0 0"/><feFuncG type="discrete" tableValues="0 0"/><feFuncB type="discrete" tableValues="0 0"/><feFuncA type="linear" slope="0.4" intercept="0"/></feComponentTransfer><feGaussianBlur stdDeviation="1.77778 1.77778"/></filter><filter id="fx4" x="-10%" y="-10%" width="120%" height="120%" filterUnits="userSpaceOnUse" primitiveUnits="userSpaceOnUse"><feComponentTransfer color-interpolation-filters="sRGB"><feFuncR type="discrete" tableValues="0 0"/><feFuncG type="discrete" tableValues="0 0"/><feFuncB type="discrete" tableValues="0 0"/><feFuncA type="linear" slope="0.4" intercept="0"/></feComponentTransfer><feGaussianBlur stdDeviation="1.77778 1.77778"/></filter><filter id="fx5" x="-10%" y="-10%" width="120%" height="120%" filterUnits="userSpaceOnUse" primitiveUnits="userSpaceOnUse"><feComponentTransfer color-interpolation-filters="sRGB"><feFuncR type="discrete" tableValues="0 0"/><feFuncG type="discrete" tableValues="0 0"/><feFuncB type="discrete" tableValues="0 0"/><feFuncA type="linear" slope="0.4" intercept="0"/></feComponentTransfer><feGaussianBlur stdDeviation="1.77778 1.77778"/></filter><filter id="fx6" x="-10%" y="-10%" width="120%" height="120%" filterUnits="userSpaceOnUse" primitiveUnits="userSpaceOnUse"><feComponentTransfer color-interpolation-filters="sRGB"><feFuncR type="discrete" tableValues="0 0"/><feFuncG type="discrete" tableValues="0 0"/><feFuncB type="discrete" tableValues="0 0"/><feFuncA type="linear" slope="0.4" intercept="0"/></feComponentTransfer><feGaussianBlur stdDeviation="1.77778 1.77778"/></filter><filter id="fx7" x="-10%" y="-10%" width="120%" height="120%" filterUnits="userSpaceOnUse" primitiveUnits="userSpaceOnUse"><feComponentTransfer color-interpolation-filters="sRGB"><feFuncR type="discrete" tableValues="0 0"/><feFuncG type="discrete" tableValues="0 0"/><feFuncB type="discrete" tableValues="0 0"/><feFuncA type="linear" slope="0.501961" intercept="0"/></feComponentTransfer><feGaussianBlur stdDeviation="1.77778 1.77778"/></filter><filter id="fx8" x="-10%" y="-10%" width="120%" height="120%" filterUnits="userSpaceOnUse" primitiveUnits="userSpaceOnUse"><feComponentTransfer color-interpolation-filters="sRGB"><feFuncR type="discrete" tableValues="0 0"/><feFuncG type="discrete" tableValues="0 0"/><feFuncB type="discrete" tableValues="0 0"/><feFuncA type="linear" slope="0.501961" intercept="0"/></feComponentTransfer><feGaussianBlur stdDeviation="1.77778 1.77778"/></filter><filter id="fx9" x="-10%" y="-10%" width="120%" height="120%" filterUnits="userSpaceOnUse" primitiveUnits="userSpaceOnUse"><feComponentTransfer color-interpolation-filters="sRGB"><feFuncR type="discrete" tableValues="0 0"/><feFuncG type="discrete" tableValues="0 0"/><feFuncB type="discrete" tableValues="0 0"/><feFuncA type="linear" slope="0.501961" intercept="0"/></feComponentTransfer><feGaussianBlur stdDeviation="1.77778 1.77778"/></filter><filter id="fx10" x="-10%" y="-10%" width="120%" height="120%" filterUnits="userSpaceOnUse" primitiveUnits="userSpaceOnUse"><feComponentTransfer color-interpolation-filters="sRGB"><feFuncR type="discrete" tableValues="0 0"/><feFuncG type="discrete" tableValues="0 0"/><feFuncB type="discrete" tableValues="0 0"/><feFuncA type="linear" slope="0.501961" intercept="0"/></feComponentTransfer><feGaussianBlur stdDeviation="1.77778 1.77778"/></filter><filter id="fx11" x="-10%" y="-10%" width="120%" height="120%" filterUnits="userSpaceOnUse" primitiveUnits="userSpaceOnUse"><feComponentTransfer color-interpolation-filters="sRGB"><feFuncR type="discrete" tableValues="0 0"/><feFuncG type="discrete" tableValues="0 0"/><feFuncB type="discrete" tableValues="0 0"/><feFuncA type="linear" slope="0.501961" intercept="0"/></feComponentTransfer><feGaussianBlur stdDeviation="1.77778 1.77778"/></filter><filter id="fx12" x="-10%" y="-10%" width="120%" height="120%" filterUnits="userSpaceOnUse" primitiveUnits="userSpaceOnUse"><feComponentTransfer color-interpolation-filters="sRGB"><feFuncR type="discrete" tableValues="0 0"/><feFuncG type="discrete" tableValues="0 0"/><feFuncB type="discrete" tableValues="0 0"/><feFuncA type="linear" slope="0.4" intercept="0"/></feComponentTransfer><feGaussianBlur stdDeviation="1.77778 1.77778"/></filter><filter id="fx13" x="-10%" y="-10%" width="120%" height="120%" filterUnits="userSpaceOnUse" primitiveUnits="userSpaceOnUse"><feComponentTransfer color-interpolation-filters="sRGB"><feFuncR type="discrete" tableValues="0 0"/><feFuncG type="discrete" tableValues="0 0"/><feFuncB type="discrete" tableValues="0 0"/><feFuncA type="linear" slope="0.501961" intercept="0"/></feComponentTransfer><feGaussianBlur stdDeviation="1.77778 1.77778"/></filter><clipPath id="clip14"><rect x="0" y="0" width="1280" height="720"/></clipPath><clipPath id="clip15"><path d="M172.171 13.5001C160.755 13.5001 151.5 22.7549 151.5 34.1714L151.5 232.829C151.5 244.245 160.755 253.5 172.171 253.5L387.829 253.5C399.245 253.5 408.5 244.245 408.5 232.829L408.5 34.1714C408.5 22.7549 399.245 13.5001 387.829 13.5001ZM1.90735e-05 1.07288e-05 1280 1.07288e-05 1280 720 1.90735e-05 720Z" fill-rule="evenodd" clip-rule="evenodd"/></clipPath><clipPath id="clip16"><rect x="-2" y="-2" width="275" height="259"/></clipPath><clipPath id="clip17"><rect x="0" y="0" width="272" height="255"/></clipPath><clipPath id="clip18"><path d="M443.176 14.5001C432.861 14.5001 424.5 22.8614 424.5 33.1757L424.5 234.824C424.5 245.139 432.861 253.5 443.176 253.5L885.824 253.5C896.139 253.5 904.5 245.139 904.5 234.824L904.5 33.1757C904.5 22.8614 896.139 14.5001 885.824 14.5001ZM1.90735e-05 1.07288e-05 1280 1.07288e-05 1280 720 1.90735e-05 720Z" fill-rule="evenodd" clip-rule="evenodd"/></clipPath><clipPath id="clip19"><rect x="-2" y="-2" width="498" height="256"/></clipPath><clipPath id="clip20"><rect x="0" y="0" width="495" height="254"/></clipPath><clipPath id="clip21"><path d="M506.167 155.5C501.933 155.5 498.5 158.933 498.5 163.167L498.5 228.833C498.5 233.068 501.933 236.5 506.167 236.5L536.833 236.5C541.068 236.5 544.5 233.068 544.5 228.833L544.5 163.167C544.5 158.933 541.068 155.5 536.833 155.5ZM1.90735e-05 1.07288e-05 1280 1.07288e-05 1280 720 1.90735e-05 720Z" fill-rule="evenodd" clip-rule="evenodd"/></clipPath><clipPath id="clip22"><rect x="-2" y="-2" width="64" height="100"/></clipPath><clipPath id="clip23"><rect x="0" y="0" width="61" height="96"/></clipPath><clipPath id="clip24"><path d="M586.833 88.5001C582.231 88.5001 578.5 92.2311 578.5 96.8335L578.5 187.167C578.5 191.769 582.231 195.5 586.833 195.5L620.167 195.5C624.769 195.5 628.5 191.769 628.5 187.167L628.5 96.8335C628.5 92.2311 624.769 88.5001 620.167 88.5001ZM1.90735e-05 1.07288e-05 1280 1.07288e-05 1280 720 1.90735e-05 720Z" fill-rule="evenodd" clip-rule="evenodd"/></clipPath><clipPath id="clip25"><rect x="-2" y="-2" width="69" height="124"/></clipPath><clipPath id="clip26"><rect x="0" y="0" width="65" height="122"/></clipPath><clipPath id="clip27"><path d="M822.833 88.5001C818.231 88.5001 814.5 92.2311 814.5 96.8335L814.5 187.167C814.5 191.769 818.231 195.5 822.833 195.5L856.167 195.5C860.769 195.5 864.5 191.769 864.5 187.167L864.5 96.8335C864.5 92.2311 860.769 88.5001 856.167 88.5001ZM1.90735e-05 1.07288e-05 1280 1.07288e-05 1280 720 1.90735e-05 720Z" fill-rule="evenodd" clip-rule="evenodd"/></clipPath><clipPath id="clip28"><rect x="-2" y="-2" width="69" height="124"/></clipPath><clipPath id="clip29"><rect x="0" y="0" width="65" height="122"/></clipPath><clipPath id="clip30"><path d="M743.833 88.5001C739.231 88.5001 735.5 92.2311 735.5 96.8335L735.5 187.167C735.5 191.769 739.231 195.5 743.833 195.5L777.167 195.5C781.769 195.5 785.5 191.769 785.5 187.167L785.5 96.8335C785.5 92.2311 781.769 88.5001 777.167 88.5001ZM1.90735e-05 1.07288e-05 1280 1.07288e-05 1280 720 1.90735e-05 720Z" fill-rule="evenodd" clip-rule="evenodd"/></clipPath><clipPath id="clip31"><rect x="-2" y="-2" width="69" height="124"/></clipPath><clipPath id="clip32"><rect x="0" y="0" width="65" height="122"/></clipPath><clipPath id="clip33"><path d="M665.833 88.5001C661.231 88.5001 657.5 92.2311 657.5 96.8335L657.5 187.167C657.5 191.769 661.231 195.5 665.833 195.5L699.167 195.5C703.769 195.5 707.5 191.769 707.5 187.167L707.5 96.8335C707.5 92.2311 703.769 88.5001 699.167 88.5001ZM1.90735e-05 1.07288e-05 1280 1.07288e-05 1280 720 1.90735e-05 720Z" fill-rule="evenodd" clip-rule="evenodd"/></clipPath><clipPath id="clip34"><rect x="-2" y="-2" width="69" height="124"/></clipPath><clipPath id="clip35"><rect x="0" y="0" width="65" height="122"/></clipPath><clipPath id="clip36"><path d="M937.827 13.5001C926.601 13.5001 917.5 22.6007 917.5 33.8268L917.5 233.173C917.5 244.399 926.601 253.5 937.827 253.5L1133.17 253.5C1144.4 253.5 1153.5 244.399 1153.5 233.173L1153.5 33.8268C1153.5 22.6007 1144.4 13.5001 1133.17 13.5001ZM1.90735e-05 1.07288e-05 1280 1.07288e-05 1280 720 1.90735e-05 720Z" fill-rule="evenodd" clip-rule="evenodd"/></clipPath><clipPath id="clip37"><rect x="-2" y="-2" width="254" height="259"/></clipPath><clipPath id="clip38"><rect x="0" y="0" width="251" height="255"/></clipPath><clipPath id="clip39"><path d="M412.834 292.5C406.574 292.5 401.5 297.574 401.5 303.833L401.5 424.167C401.5 430.426 406.574 435.5 412.834 435.5L458.167 435.5C464.426 435.5 469.5 430.426 469.5 424.167L469.5 303.833C469.5 297.574 464.426 292.5 458.167 292.5ZM1.90735e-05 1.07288e-05 1280 1.07288e-05 1280 720 1.90735e-05 720Z" fill-rule="evenodd" clip-rule="evenodd"/></clipPath><clipPath id="clip40"><rect x="-2" y="-2" width="87" height="164"/></clipPath><clipPath id="clip41"><rect x="0" y="0" width="84" height="159"/></clipPath><clipPath id="clip42"><path d="M527.834 292.5C521.574 292.5 516.5 297.574 516.5 303.833L516.5 424.167C516.5 430.426 521.574 435.5 527.834 435.5L573.167 435.5C579.426 435.5 584.5 430.426 584.5 424.167L584.5 303.833C584.5 297.574 579.426 292.5 573.167 292.5ZM1.90735e-05 1.07288e-05 1280 1.07288e-05 1280 720 1.90735e-05 720Z" fill-rule="evenodd" clip-rule="evenodd"/></clipPath><clipPath id="clip43"><rect x="-2" y="-2" width="87" height="164"/></clipPath><clipPath id="clip44"><rect x="0" y="0" width="84" height="159"/></clipPath><clipPath id="clip45"><path d="M641.834 292.5C635.574 292.5 630.5 297.574 630.5 303.833L630.5 424.167C630.5 430.426 635.574 435.5 641.834 435.5L687.167 435.5C693.426 435.5 698.5 430.426 698.5 424.167L698.5 303.833C698.5 297.574 693.426 292.5 687.167 292.5ZM1.90735e-05 1.07288e-05 1280 1.07288e-05 1280 720 1.90735e-05 720Z" fill-rule="evenodd" clip-rule="evenodd"/></clipPath><clipPath id="clip46"><rect x="-2" y="-2" width="87" height="164"/></clipPath><clipPath id="clip47"><rect x="0" y="0" width="84" height="159"/></clipPath><clipPath id="clip48"><path d="M757.834 291.5C751.574 291.5 746.5 296.574 746.5 302.834L746.5 424.167C746.5 430.426 751.574 435.5 757.834 435.5L803.167 435.5C809.426 435.5 814.5 430.426 814.5 424.167L814.5 302.834C814.5 296.574 809.426 291.5 803.167 291.5ZM1.90735e-05 1.07288e-05 1280 1.07288e-05 1280 720 1.90735e-05 720Z" fill-rule="evenodd" clip-rule="evenodd"/></clipPath><clipPath id="clip49"><rect x="-2" y="-2" width="87" height="164"/></clipPath><clipPath id="clip50"><rect x="0" y="0" width="84" height="160"/></clipPath><clipPath id="clip51"><path d="M506.167 46.5001C501.933 46.5001 498.5 49.9326 498.5 54.1669L498.5 119.833C498.5 124.067 501.933 127.5 506.167 127.5L536.833 127.5C541.068 127.5 544.5 124.067 544.5 119.833L544.5 54.1669C544.5 49.9326 541.068 46.5001 536.833 46.5001ZM1.90735e-05 1.07288e-05 1280 1.07288e-05 1280 720 1.90735e-05 720Z" fill-rule="evenodd" clip-rule="evenodd"/></clipPath><clipPath id="clip52"><rect x="-2" y="-2" width="64" height="100"/></clipPath><clipPath id="clip53"><rect x="0" y="0" width="61" height="96"/></clipPath><clipPath id="clip54"><path d="M168.853 482.5C158.165 482.5 149.5 491.165 149.5 501.853L149.5 649.147C149.5 659.835 158.165 668.5 168.853 668.5L1138.15 668.5C1148.84 668.5 1157.5 659.835 1157.5 649.147L1157.5 501.853C1157.5 491.165 1148.84 482.5 1138.15 482.5ZM1.90735e-05 1.07288e-05 1280 1.07288e-05 1280 720 1.90735e-05 720Z" fill-rule="evenodd" clip-rule="evenodd"/></clipPath><clipPath id="clip55"><rect x="-2" y="-2" width="1027" height="203"/></clipPath><clipPath id="clip56"><rect x="0" y="0" width="1023" height="201"/></clipPath></defs><g clip-path="url(#clip14)"><rect x="0" y="0" width="1280" height="720" fill="#FFFFFF"/><g clip-path="url(#clip15)"><g clip-path="url(#clip16)" filter="url(#fx0)" transform="translate(147 9)"><g clip-path="url(#clip17)"><path d="M7.32848 27.9998C7.32848 16.5833 16.5833 7.32848 27.9998 7.32848L243.657 7.32848C255.074 7.32848 264.328 16.5833 264.328 27.9998L264.328 226.657C264.328 238.074 255.074 247.328 243.657 247.328L27.9998 247.328C16.5833 247.328 7.32848 238.074 7.32848 226.657Z" stroke="#F5B482" stroke-miterlimit="8" fill="#FCE6D5" fill-rule="evenodd"/></g></g></g><path d="M151.5 34.1714C151.5 22.7549 160.755 13.5001 172.171 13.5001L387.829 13.5001C399.245 13.5001 408.5 22.7549 408.5 34.1714L408.5 232.829C408.5 244.245 399.245 253.5 387.829 253.5L172.171 253.5C160.755 253.5 151.5 244.245 151.5 232.829Z" stroke="#F5B482" stroke-width="1.33333" stroke-miterlimit="8" fill="#FCE6D5" fill-rule="evenodd"/><path d="M358.5 300.041C358.5 288.144 368.144 278.5 380.041 278.5L849.96 278.5C861.856 278.5 871.5 288.144 871.5 300.041L871.5 431.96C871.5 443.856 861.856 453.5 849.96 453.5L380.041 453.5C368.144 453.5 358.5 443.856 358.5 431.96Z" stroke="#795D01" stroke-width="1.33333" stroke-miterlimit="8" fill="#F5B7BF" fill-rule="evenodd"/><path d="M0.0101489-1.49997 475.313 1.71597 475.292 4.7159-0.0101489 1.49997ZM473.831-1.29412 482.8 3.26667 473.77 7.70567Z" transform="matrix(1 0 0 -1 375.5 364.767)"/><g clip-path="url(#clip18)"><g clip-path="url(#clip19)" filter="url(#fx1)" transform="translate(420 10)"><g clip-path="url(#clip20)"><path d="M7.32849 26.0041C7.32849 15.6898 15.6898 7.32848 26.0041 7.32848L468.653 7.32848C478.967 7.32848 487.328 15.6898 487.328 26.0041L487.328 227.653C487.328 237.967 478.967 246.328 468.653 246.328L26.0041 246.328C15.6898 246.328 7.32849 237.967 7.32849 227.653Z" stroke="#3B5F21" stroke-miterlimit="8" fill="#C8E5B3" fill-rule="evenodd"/></g></g></g><path d="M424.5 33.1756C424.5 22.8614 432.861 14.5001 443.176 14.5001L885.824 14.5001C896.139 14.5001 904.5 22.8614 904.5 33.1756L904.5 234.824C904.5 245.139 896.139 253.5 885.824 253.5L443.176 253.5C432.861 253.5 424.5 245.139 424.5 234.824Z" stroke="#3B5F21" stroke-width="1.33333" stroke-miterlimit="8" fill="#C8E5B3" fill-rule="evenodd"/><rect x="904.5" y="300.5" width="47" height="128" stroke="#0D0D0D" stroke-width="1.33333" stroke-miterlimit="8" fill="#7F7F7F"/><g clip-path="url(#clip21)"><g clip-path="url(#clip22)" filter="url(#fx2)" transform="translate(494 151)"><g clip-path="url(#clip23)"><path d="M7.32849 14.9953C7.32849 10.761 10.7611 7.32848 14.9953 7.32848L45.6616 7.32848C49.8959 7.32848 53.3285 10.761 53.3285 14.9953L53.3285 80.6616C53.3285 84.8959 49.8959 88.3285 45.6616 88.3285L14.9953 88.3285C10.7611 88.3285 7.32849 84.8959 7.32849 80.6616Z" stroke="#000000" stroke-miterlimit="8" fill="#F5B482" fill-rule="evenodd"/></g></g></g><path d="M498.5 163.167C498.5 158.933 501.933 155.5 506.167 155.5L536.833 155.5C541.068 155.5 544.5 158.933 544.5 163.167L544.5 228.833C544.5 233.067 541.068 236.5 536.833 236.5L506.167 236.5C501.933 236.5 498.5 233.067 498.5 228.833Z" stroke="#000000" stroke-width="1.33333" stroke-miterlimit="8" fill="#F5B482" fill-rule="evenodd"/><g clip-path="url(#clip24)"><g clip-path="url(#clip25)" filter="url(#fx3)" transform="translate(574 84)"><g clip-path="url(#clip26)"><path d="M7.32849 15.6619C7.32849 11.0595 11.0595 7.32848 15.662 7.32848L48.995 7.32848C53.5975 7.32848 57.3285 11.0595 57.3285 15.6619L57.3285 105.995C57.3285 110.597 53.5975 114.328 48.995 114.328L15.662 114.328C11.0595 114.328 7.32849 110.597 7.32849 105.995Z" stroke="#000000" stroke-miterlimit="8" fill="#F5B7BF" fill-rule="evenodd"/></g></g></g><path d="M578.5 96.8335C578.5 92.2311 582.231 88.5001 586.834 88.5001L620.167 88.5001C624.769 88.5001 628.5 92.2311 628.5 96.8335L628.5 187.167C628.5 191.769 624.769 195.5 620.167 195.5L586.834 195.5C582.231 195.5 578.5 191.769 578.5 187.167Z" stroke="#000000" stroke-width="1.33333" stroke-miterlimit="8" fill="#F5B7BF" fill-rule="evenodd"/><path d="M0.00585323-1.49999 248.772-0.529256 248.761 2.47072-0.00585323 1.49999ZM247.284-3.53508 256.267 1 247.249 5.46485Z" transform="matrix(1 0 0 -1 628.5 142.5)"/><g clip-path="url(#clip27)"><g clip-path="url(#clip28)" filter="url(#fx4)" transform="translate(810 84)"><g clip-path="url(#clip29)"><path d="M7.32849 15.6619C7.32849 11.0595 11.0595 7.32848 15.662 7.32848L48.995 7.32848C53.5975 7.32848 57.3285 11.0595 57.3285 15.6619L57.3285 105.995C57.3285 110.597 53.5975 114.328 48.995 114.328L15.662 114.328C11.0595 114.328 7.32849 110.597 7.32849 105.995Z" stroke="#000000" stroke-miterlimit="8" fill="#ADB9CA" fill-rule="evenodd"/></g></g></g><path d="M814.5 96.8335C814.5 92.2311 818.231 88.5001 822.834 88.5001L856.167 88.5001C860.769 88.5001 864.5 92.2311 864.5 96.8335L864.5 187.167C864.5 191.769 860.769 195.5 856.167 195.5L822.834 195.5C818.231 195.5 814.5 191.769 814.5 187.167Z" stroke="#000000" stroke-width="1.33333" stroke-miterlimit="8" fill="#ADB9CA" fill-rule="evenodd"/><g clip-path="url(#clip30)"><g clip-path="url(#clip31)" filter="url(#fx5)" transform="translate(731 84)"><g clip-path="url(#clip32)"><path d="M7.32849 15.6619C7.32849 11.0595 11.0595 7.32848 15.662 7.32848L48.995 7.32848C53.5975 7.32848 57.3285 11.0595 57.3285 15.6619L57.3285 105.995C57.3285 110.597 53.5975 114.328 48.995 114.328L15.662 114.328C11.0595 114.328 7.32849 110.597 7.32849 105.995Z" stroke="#000000" stroke-miterlimit="8" fill="#D9D9D9" fill-rule="evenodd"/></g></g></g><path d="M735.5 96.8335C735.5 92.2311 739.231 88.5001 743.834 88.5001L777.167 88.5001C781.769 88.5001 785.5 92.2311 785.5 96.8335L785.5 187.167C785.5 191.769 781.769 195.5 777.167 195.5L743.834 195.5C739.231 195.5 735.5 191.769 735.5 187.167Z" stroke="#000000" stroke-width="1.33333" stroke-miterlimit="8" fill="#D9D9D9" fill-rule="evenodd"/><g clip-path="url(#clip33)"><g clip-path="url(#clip34)" filter="url(#fx6)" transform="translate(653 84)"><g clip-path="url(#clip35)"><path d="M7.32849 15.6619C7.32849 11.0595 11.0595 7.32848 15.662 7.32848L48.995 7.32848C53.5975 7.32848 57.3285 11.0595 57.3285 15.6619L57.3285 105.995C57.3285 110.597 53.5975 114.328 48.995 114.328L15.662 114.328C11.0595 114.328 7.32849 110.597 7.32849 105.995Z" stroke="#000000" stroke-miterlimit="8" fill="#ADB9CA" fill-rule="evenodd"/></g></g></g><path d="M657.5 96.8335C657.5 92.2311 661.231 88.5001 665.834 88.5001L699.167 88.5001C703.769 88.5001 707.5 92.2311 707.5 96.8335L707.5 187.167C707.5 191.769 703.769 195.5 699.167 195.5L665.834 195.5C661.231 195.5 657.5 191.769 657.5 187.167Z" stroke="#000000" stroke-width="1.33333" stroke-miterlimit="8" fill="#ADB9CA" fill-rule="evenodd"/><path d="M466 140.033 466 87 491.867 87 491.867 90 467.5 90 469 88.5 469 140.033ZM490.367 84 499.367 88.5 490.367 93Z"/><path d="M0-1.5 54.3667-1.5 54.3667 25.4333 51.3667 25.4333 51.3667 0 52.8667 1.5 0 1.5ZM57.3667 23.9333 52.8667 32.9333 48.3667 23.9333Z" transform="matrix(6.12323e-17 1 1 -6.12323e-17 467.5 142.5)"/><path d="M439.5 141.5 468.117 142" stroke="#000000" stroke-width="3" stroke-miterlimit="8" fill="none" fill-rule="evenodd"/><path d="M544.5 86.0001 563.267 86.0001 563.267 142.233 561.767 140.733 571.533 140.733 571.533 143.733 560.267 143.733 560.267 87.5001 561.767 89.0001 544.5 89.0001ZM570.033 137.733 579.033 142.233 570.033 146.733Z"/><path d="M0 0 17.2667 0 17.2667 54 34.5333 54" stroke="#000000" stroke-width="3" stroke-miterlimit="8" fill="none" fill-rule="evenodd" transform="matrix(1 0 0 -1 544.5 196.5)"/><rect x="183.5" y="112.361" width="49.1386" height="113.139" fill="#F5B482"/><path d="M232.639 112.361 279.5 65.5001 279.5 178.639 232.639 225.5Z" fill="#C59169" fill-rule="evenodd"/><path d="M183.5 112.361 230.361 65.5001 279.5 65.5001 232.639 112.361Z" fill="#F7C39B" fill-rule="evenodd"/><path d="M183.5 112.361 230.361 65.5001 279.5 65.5001 279.5 178.639 232.639 225.5 183.5 225.5ZM183.5 112.361 232.639 112.361 279.5 65.5001M232.639 112.361 232.639 225.5" stroke="#000000" stroke-width="1.33333" stroke-miterlimit="8" fill="none" fill-rule="evenodd"/><rect x="252.5" y="134.463" width="35.0372" height="67.0372" fill="#E3F2D9"/><path d="M287.537 134.463 313.5 108.5 313.5 175.537 287.537 201.5Z" fill="#B6C3AE" fill-rule="evenodd"/><path d="M252.5 134.463 278.463 108.5 313.5 108.5 287.537 134.463Z" fill="#E8F5E0" fill-rule="evenodd"/><path d="M252.5 134.463 278.463 108.5 313.5 108.5 313.5 175.537 287.537 201.5 252.5 201.5ZM252.5 134.463 287.537 134.463 313.5 108.5M287.537 134.463 287.537 201.5" stroke="#000000" stroke-width="1.33333" stroke-miterlimit="8" fill="none" fill-rule="evenodd"/><rect x="307.5" y="109.837" width="31.6635" height="113.664" fill="#FADBDF"/><path d="M339.164 109.837 374.5 74.5001 374.5 188.164 339.164 223.5Z" fill="#C9B0B3" fill-rule="evenodd"/><path d="M307.5 109.837 342.837 74.5001 374.5 74.5001 339.164 109.837Z" fill="#FBE2E5" fill-rule="evenodd"/><path d="M307.5 109.837 342.837 74.5001 374.5 74.5001 374.5 188.164 339.164 223.5 307.5 223.5ZM307.5 109.837 339.164 109.837 374.5 74.5001M339.164 109.837 339.164 223.5" stroke="#000000" stroke-width="1.33333" stroke-miterlimit="8" fill="none" fill-rule="evenodd"/><text font-family="Times New Roman,Times New Roman_MSFontService,sans-serif" font-weight="400" font-size="19" transform="matrix(-1.83697e-16 -1 1 -1.83697e-16 330.171 215)">Convolution<tspan font-size="19" x="19" y="-129.704">Dilated </tspan><tspan font-size="19" x="1.97849e-14" y="-107.704">Convolution</tspan><tspan font-size="19" x="30" y="-52.8375">Relu</tspan></text><path d="M0.0177352-1.4999 31.9849-1.1219 31.9495 1.87789-0.0177352 1.4999ZM30.5205-4.13943 39.4667 0.466667 30.4141 4.85994Z" transform="matrix(1 0 0 -1 359.5 154.967)"/><path d="M156.5 156.5 183.567 156.5" stroke="#000000" stroke-width="3" stroke-miterlimit="8" fill="none" fill-rule="evenodd"/><g clip-path="url(#clip36)"><g clip-path="url(#clip37)" filter="url(#fx7)" transform="translate(913 9)"><g clip-path="url(#clip38)"><path d="M7.32849 27.6553C7.32849 16.4291 16.4291 7.32848 27.6553 7.32848L223.002 7.32848C234.228 7.32848 243.328 16.4291 243.328 27.6553L243.328 227.002C243.328 238.228 234.228 247.328 223.002 247.328L27.6553 247.328C16.4291 247.328 7.32849 238.228 7.32849 227.002Z" stroke="#7F7F7F" stroke-miterlimit="8" fill="#F2F2F2" fill-rule="evenodd"/></g></g></g><path d="M917.5 33.8268C917.5 22.6007 926.601 13.5001 937.827 13.5001L1133.17 13.5001C1144.4 13.5001 1153.5 22.6007 1153.5 33.8268L1153.5 233.173C1153.5 244.399 1144.4 253.5 1133.17 253.5L937.827 253.5C926.601 253.5 917.5 244.399 917.5 233.173Z" stroke="#7F7F7F" stroke-width="1.33333" stroke-miterlimit="8" fill="#F2F2F2" fill-rule="evenodd"/><rect x="952.5" y="115.837" width="31.6635" height="112.664" fill="#FADBDF"/><path d="M984.164 115.837 1019.5 80.5001 1019.5 193.164 984.164 228.5Z" fill="#C9B0B3" fill-rule="evenodd"/><path d="M952.5 115.837 987.837 80.5001 1019.5 80.5001 984.164 115.837Z" fill="#FBE2E5" fill-rule="evenodd"/><path d="M952.5 115.837 987.837 80.5001 1019.5 80.5001 1019.5 193.164 984.164 228.5 952.5 228.5ZM952.5 115.837 984.164 115.837 1019.5 80.5001M984.164 115.837 984.164 228.5" stroke="#000000" stroke-width="1.33333" stroke-miterlimit="8" fill="none" fill-rule="evenodd"/><rect x="1002.5" y="137.889" width="35.6115" height="66.6116" fill="#E3F2D9"/><path d="M1038.11 137.889 1064.5 111.5 1064.5 178.112 1038.11 204.5Z" fill="#B6C3AE" fill-rule="evenodd"/><path d="M1002.5 137.889 1028.89 111.5 1064.5 111.5 1038.11 137.889Z" fill="#E8F5E0" fill-rule="evenodd"/><path d="M1002.5 137.889 1028.89 111.5 1064.5 111.5 1064.5 178.112 1038.11 204.5 1002.5 204.5ZM1002.5 137.889 1038.11 137.889 1064.5 111.5M1038.11 137.889 1038.11 204.5" stroke="#000000" stroke-width="1.33333" stroke-miterlimit="8" fill="none" fill-rule="evenodd"/><rect x="1058.5" y="112.309" width="31.1909" height="114.191" fill="#FADBDF"/><path d="M1089.69 112.309 1124.5 77.5001 1124.5 191.691 1089.69 226.5Z" fill="#C9B0B3" fill-rule="evenodd"/><path d="M1058.5 112.309 1093.31 77.5001 1124.5 77.5001 1089.69 112.309Z" fill="#FBE2E5" fill-rule="evenodd"/><path d="M1058.5 112.309 1093.31 77.5001 1124.5 77.5001 1124.5 191.691 1089.69 226.5 1058.5 226.5ZM1058.5 112.309 1089.69 112.309 1124.5 77.5001M1089.69 112.309 1089.69 226.5" stroke="#000000" stroke-width="1.33333" stroke-miterlimit="8" fill="none" fill-rule="evenodd"/><text font-family="Times New Roman,Times New Roman_MSFontService,sans-serif" font-weight="400" font-size="19" transform="matrix(-1.83697e-16 -1 1 -1.83697e-16 1080.37 219)">Convolution<tspan font-size="19" x="31" y="-52.8375">Relu</tspan></text><path d="M0.0177352-1.4999 31.9849-1.1219 31.9495 1.87789-0.0177352 1.4999ZM30.5205-4.13943 39.4667 0.466667 30.4141 4.85994Z" transform="matrix(1 0 0 -1 1109.5 157.967)"/><path d="M924.5 159.5 951.7 159.5" stroke="#000000" stroke-width="3" stroke-miterlimit="8" fill="none" fill-rule="evenodd"/><text font-family="Times New Roman,Times New Roman_MSFontService,sans-serif" font-weight="400" font-size="19" transform="matrix(-1.83697e-16 -1 1 -1.83697e-16 974.771 221)">Convolution</text><path d="M0 0 36.7333 27" stroke="#000000" stroke-width="3" stroke-miterlimit="8" stroke-dasharray="9 3" fill="none" fill-rule="evenodd" transform="matrix(1 0 0 -1 328.5 311.5)"/><path d="M324.5 426.5 367.7 451.367" stroke="#000000" stroke-width="3" stroke-miterlimit="8" stroke-dasharray="9 3" fill="none" fill-rule="evenodd"/><path d="M222.5 286.5 328.5 313 328.5 427 222.5 453.5Z" stroke="#222A35" stroke-width="1.33333" stroke-miterlimit="8" fill="#ADB9CA" fill-rule="evenodd"/><path d="M229.5 345.5C229.5 339.425 234.425 334.5 240.5 334.5L311.5 334.5C317.575 334.5 322.5 339.425 322.5 345.5L322.5 389.5C322.5 395.575 317.575 400.5 311.5 400.5L240.5 400.5C234.425 400.5 229.5 395.575 229.5 389.5Z" stroke="#000000" stroke-width="1.33333" stroke-miterlimit="8" fill="none" fill-rule="evenodd"/><text font-family="Times New Roman,Times New Roman_MSFontService,sans-serif" font-style="italic" font-weight="700" font-size="19" transform="translate(231.533 372)">GFencoder</text><path d="M1081.5 450.5 980.5 425.25 980.5 303.75 1081.5 278.5Z" stroke="#222A35" stroke-width="1.33333" stroke-miterlimit="8" fill="#ADB9CA" fill-rule="evenodd"/><path d="M985.5 340.5C985.5 334.425 990.425 329.5 996.5 329.5L1065.5 329.5C1071.58 329.5 1076.5 334.425 1076.5 340.5L1076.5 384.5C1076.5 390.575 1071.58 395.5 1065.5 395.5L996.5 395.5C990.425 395.5 985.5 390.575 985.5 384.5Z" stroke="#000000" stroke-width="1.33333" stroke-miterlimit="8" fill="none" fill-rule="evenodd"/><text font-family="Times New Roman,Times New Roman_MSFontService,sans-serif" font-style="italic" font-weight="700" font-size="21" transform="translate(994.617 370)">Decoder</text><path d="M868.5 289.5 904.233 364.767" stroke="#000000" stroke-width="3" stroke-miterlimit="8" stroke-dasharray="9 3" fill="none" fill-rule="evenodd"/><path d="M0 0 35.2667 84.2667" stroke="#000000" stroke-width="3" stroke-miterlimit="8" stroke-dasharray="9 3" fill="none" fill-rule="evenodd" transform="matrix(1 0 0 -1 868.5 446.767)"/><path d="M951.514 364 972.881 364.198 972.853 367.197 951.486 367ZM971.409 361.184 980.367 365.767 971.326 370.183Z"/><path d="M1081.53 364 1107.97 364.572 1107.9 367.571 1081.47 367ZM1106.53 361.54 1115.43 366.233 1106.34 370.538Z"/><path d="M0.0149693-1.49993 25.9153-1.24144 25.8854 1.75841-0.0149693 1.49993ZM24.4454-4.25626 33.4 0.333333 24.3555 4.74329Z" transform="matrix(1 0 0 -1 188.5 369.833)"/><g clip-path="url(#clip39)"><g clip-path="url(#clip40)" filter="url(#fx8)" transform="translate(397 288)"><g clip-path="url(#clip41)"><path d="M18.7821 151.765C12.4601 151.765 7.33521 146.64 7.33521 140.318L7.33521 18.7819C7.33521 12.46 12.4601 7.33508 18.7821 7.33508L64.5683 7.33508C70.8903 7.33508 76.0152 12.46 76.0152 18.7819L76.0152 140.318C76.0152 146.64 70.8903 151.765 64.5683 151.765Z" stroke="#000000" stroke-miterlimit="8" fill="#B6C7EA" fill-rule="evenodd"/></g></g></g><path d="M412.834 435.5C406.574 435.5 401.5 430.426 401.5 424.167L401.5 303.833C401.5 297.574 406.574 292.5 412.834 292.5L458.167 292.5C464.426 292.5 469.5 297.574 469.5 303.833L469.5 424.167C469.5 430.426 464.426 435.5 458.167 435.5Z" stroke="#000000" stroke-width="1.33333" stroke-miterlimit="8" fill="#B6C7EA" fill-rule="evenodd"/><text font-family="Times New Roman,Times New Roman_MSFontService,sans-serif" font-weight="400" font-size="21" transform="matrix(-1.83697e-16 -1 1 -1.83697e-16 442.933 415)">GFA Block</text><g clip-path="url(#clip42)"><g clip-path="url(#clip43)" filter="url(#fx9)" transform="translate(512 288)"><g clip-path="url(#clip44)"><path d="M18.7821 151.765C12.4601 151.765 7.33521 146.64 7.33521 140.318L7.33521 18.7819C7.33521 12.46 12.4601 7.33508 18.7821 7.33508L64.5683 7.33508C70.8903 7.33508 76.0152 12.46 76.0152 18.7819L76.0152 140.318C76.0152 146.64 70.8903 151.765 64.5683 151.765Z" stroke="#000000" stroke-miterlimit="8" fill="#ACD78E" fill-rule="evenodd"/></g></g></g><path d="M527.834 435.5C521.574 435.5 516.5 430.426 516.5 424.167L516.5 303.833C516.5 297.574 521.574 292.5 527.834 292.5L573.167 292.5C579.426 292.5 584.5 297.574 584.5 303.833L584.5 424.167C584.5 430.426 579.426 435.5 573.167 435.5Z" stroke="#000000" stroke-width="1.33333" stroke-miterlimit="8" fill="#ACD78E" fill-rule="evenodd"/><text font-family="Times New Roman,Times New Roman_MSFontService,sans-serif" font-weight="400" font-size="21" transform="matrix(-1.83697e-16 -1 1 -1.83697e-16 558.867 416)">GFE Block</text><g clip-path="url(#clip45)"><g clip-path="url(#clip46)" filter="url(#fx10)" transform="translate(626 288)"><g clip-path="url(#clip47)"><path d="M18.7821 151.765C12.4601 151.765 7.33521 146.64 7.33521 140.318L7.33521 18.7819C7.33521 12.46 12.4601 7.33508 18.7821 7.33508L64.5683 7.33508C70.8903 7.33508 76.0152 12.46 76.0152 18.7819L76.0152 140.318C76.0152 146.64 70.8903 151.765 64.5683 151.765Z" stroke="#000000" stroke-miterlimit="8" fill="#ACD78E" fill-rule="evenodd"/></g></g></g><path d="M641.834 435.5C635.574 435.5 630.5 430.426 630.5 424.167L630.5 303.833C630.5 297.574 635.574 292.5 641.834 292.5L687.167 292.5C693.426 292.5 698.5 297.574 698.5 303.833L698.5 424.167C698.5 430.426 693.426 435.5 687.167 435.5Z" stroke="#000000" stroke-width="1.33333" stroke-miterlimit="8" fill="#ACD78E" fill-rule="evenodd"/><text font-family="Times New Roman,Times New Roman_MSFontService,sans-serif" font-weight="400" font-size="21" transform="matrix(-1.83697e-16 -1 1 -1.83697e-16 673.533 416)">GFE Block</text><g clip-path="url(#clip48)"><g clip-path="url(#clip49)" filter="url(#fx11)" transform="translate(742 287)"><g clip-path="url(#clip50)"><path d="M18.782 152.775C12.4601 152.775 7.33514 147.65 7.33514 141.328L7.33514 18.782C7.33514 12.4601 12.4601 7.33516 18.782 7.33516L64.5682 7.33516C70.8902 7.33516 76.0151 12.4601 76.0151 18.782L76.0151 141.328C76.0151 147.65 70.8902 152.775 64.5682 152.775Z" stroke="#000000" stroke-miterlimit="8" fill="#F5B482" fill-rule="evenodd"/></g></g></g><path d="M757.834 435.5C751.574 435.5 746.5 430.426 746.5 424.167L746.5 302.834C746.5 296.574 751.574 291.5 757.834 291.5L803.167 291.5C809.426 291.5 814.5 296.574 814.5 302.834L814.5 424.167C814.5 430.426 809.426 435.5 803.167 435.5Z" stroke="#000000" stroke-width="1.33333" stroke-miterlimit="8" fill="#F5B482" fill-rule="evenodd"/><text font-family="Times New Roman,Times New Roman_MSFontService,sans-serif" font-weight="400" font-size="21" transform="matrix(-1.83697e-16 -1 1 -1.83697e-16 787.933 415)">LFC Block</text><g clip-path="url(#clip51)"><g clip-path="url(#clip52)" filter="url(#fx12)" transform="translate(494 42)"><g clip-path="url(#clip53)"><path d="M7.32849 14.9953C7.32849 10.761 10.7611 7.32848 14.9953 7.32848L45.6616 7.32848C49.8959 7.32848 53.3285 10.761 53.3285 14.9953L53.3285 80.6617C53.3285 84.8959 49.8959 88.3285 45.6616 88.3285L14.9953 88.3285C10.7611 88.3285 7.32849 84.8959 7.32849 80.6617Z" stroke="#000000" stroke-miterlimit="8" fill="#F5B482" fill-rule="evenodd"/></g></g></g><path d="M498.5 54.1669C498.5 49.9326 501.933 46.5001 506.167 46.5001L536.833 46.5001C541.068 46.5001 544.5 49.9326 544.5 54.1669L544.5 119.833C544.5 124.067 541.068 127.5 536.833 127.5L506.167 127.5C501.933 127.5 498.5 124.067 498.5 119.833Z" stroke="#000000" stroke-width="1.33333" stroke-miterlimit="8" fill="#F5B482" fill-rule="evenodd"/><text font-family="Times New Roman,Times New Roman_MSFontService,sans-serif" font-weight="400" font-size="19" transform="matrix(-1.83697e-16 -1 1 -1.83697e-16 515.333 100)">1D <tspan font-size="19" x="-9" y="22">Conv</tspan><tspan font-size="19" x="-107" y="-0.0333252">1D </tspan><tspan font-size="19" x="-115" y="21.9667">Conv</tspan><tspan font-size="19" x="-62" y="81">Outer </tspan><tspan font-size="19" x="-69" y="103">Product</tspan><tspan font-size="19" x="-66" y="173.833">RELU</tspan><tspan font-size="19" x="-67" y="327.967">RELU</tspan><tspan font-size="19" x="-54" y="238.1">2D</tspan><tspan font-size="19" x="-63" y="260.1">Conv</tspan></text><path d="M0-1.5 3-1.5 3 1.5 0 1.5ZM6-1.5 9-1.5 9 1.5 6 1.5ZM12-1.5 15-1.5 15 1.5 12 1.5ZM18-1.5 21.4001-1.5 21.4001 1.09994 18.4001 1.09994 18.4001 0 19.9001 1.5 18 1.5ZM21.4001 4.09994 21.4001 7.09994 18.4001 7.09994 18.4001 4.09994ZM21.4001 10.0999 21.4001 13.0999 18.4001 13.0999 18.4001 10.0999ZM21.4001 16.0999 21.4001 19.0999 18.4001 19.0999 18.4001 16.0999ZM21.4001 22.0999 21.4001 25.0999 18.4001 25.0999 18.4001 22.0999ZM21.4001 28.0999 21.4001 31.0999 18.4001 31.0999 18.4001 28.0999ZM21.4001 34.0999 21.4001 37.0999 18.4001 37.0999 18.4001 34.0999ZM21.4001 40.0999 21.4001 43.0999 18.4001 43.0999 18.4001 40.0999ZM21.4001 46.0999 21.4001 49.0999 18.4001 49.0999 18.4001 46.0999ZM21.4001 52.0999 21.4001 55.0999 18.4001 55.0999 18.4001 52.0999ZM21.4001 58.0999 21.4001 61.0999 18.4001 61.0999 18.4001 58.0999ZM21.4001 64.0999 21.4001 67.0999 18.4001 67.0999 18.4001 64.0999ZM21.4001 70.0999 21.4001 73.0999 18.4001 73.0999 18.4001 70.0999ZM21.4001 76.0999 21.4001 79.0999 18.4001 79.0999 18.4001 76.0999ZM21.4001 82.0999 21.4001 85.0999 18.4001 85.0999 18.4001 82.0999ZM21.4001 88.0999 21.4001 91.0999 18.4001 91.0999 18.4001 88.0999ZM21.4001 94.0999 21.4001 97.0999 18.4001 97.0999 18.4001 94.0999ZM21.4001 100.1 21.4001 103.1 18.4001 103.1 18.4001 100.1ZM21.4001 106.1 21.4001 109.1 18.4001 109.1 18.4001 106.1ZM21.4001 112.1 21.4001 115.1 18.4001 115.1 18.4001 112.1ZM21.4001 118.1 21.4001 121.1 18.4001 121.1 18.4001 118.1ZM21.4001 124.1 21.4001 127.1 18.4001 127.1 18.4001 124.1ZM21.4001 130.1 21.4001 133.1 18.4001 133.1 18.4001 130.1ZM21.4001 136.1 21.4001 139.1 18.4001 139.1 18.4001 136.1ZM21.4001 142.1 21.4001 145.1 18.4001 145.1 18.4001 142.1ZM21.4001 148.1 21.4001 151.1 18.4001 151.1 18.4001 148.1ZM21.4001 154.1 21.4001 155.4 19.9001 153.9 21.6 153.9 21.6 156.9 18.4001 156.9 18.4001 154.1ZM24.6 153.9 27.6 153.9 27.6 156.9 24.6 156.9ZM30.6 153.9 32.2333 153.9 32.2333 156.9 30.6 156.9ZM30.7333 150.9 39.7333 155.4 30.7333 159.9Z" fill="#404040" transform="matrix(-1.83697e-16 -1 -1 1.83697e-16 434.9 293.233)"/><path d="M663 293.231 663.005 290.231 666.005 290.236 666 293.236ZM663.01 287.231 663.016 284.231 666.016 284.236 666.01 287.236ZM663.021 281.231 663.026 278.231 666.026 278.236 666.021 281.236ZM663.031 275.231 663.036 272.231 666.036 272.236 666.031 275.236ZM663.042 269.231 663.047 266.231 666.047 266.236 666.042 269.236ZM663.052 263.231 663.056 260.992 666.056 260.997 666.052 263.236ZM660.003 262.327 664.833 253.5 668.997 262.66Z" fill="#404040"/><path d="M779 292.3 779 289.3 782 289.3 782 292.3ZM779 286.3 779 283.3 782 283.3 782 286.3ZM779 280.3 779 277.3 782 277.3 782 280.3ZM779 274.3 779 271.4 782.1 271.4 782.1 274.4 780.5 274.4 782 272.9 782 274.3ZM785.1 271.4 788.1 271.4 788.1 274.4 785.1 274.4ZM791.1 271.4 794.1 271.4 794.1 274.4 791.1 274.4ZM797.1 271.4 800.1 271.4 800.1 274.4 797.1 274.4ZM803.1 271.4 806.1 271.4 806.1 274.4 803.1 274.4ZM809.1 271.4 812.1 271.4 812.1 274.4 809.1 274.4ZM815.1 271.4 818.1 271.4 818.1 274.4 815.1 274.4ZM821.1 271.4 824.1 271.4 824.1 274.4 821.1 274.4ZM827.1 271.4 830.1 271.4 830.1 274.4 827.1 274.4ZM833.1 271.4 836.1 271.4 836.1 274.4 833.1 274.4ZM839.1 271.4 842.1 271.4 842.1 274.4 839.1 274.4ZM845.1 271.4 848.1 271.4 848.1 274.4 845.1 274.4ZM851.1 271.4 854.1 271.4 854.1 274.4 851.1 274.4ZM857.1 271.4 860.1 271.4 860.1 274.4 857.1 274.4ZM863.1 271.4 866.1 271.4 866.1 274.4 863.1 274.4ZM869.1 271.4 872.1 271.4 872.1 274.4 869.1 274.4ZM875.1 271.4 878.1 271.4 878.1 274.4 875.1 274.4ZM881.1 271.4 884.1 271.4 884.1 274.4 881.1 274.4ZM887.1 271.4 890.1 271.4 890.1 274.4 887.1 274.4ZM893.1 271.4 896.1 271.4 896.1 274.4 893.1 274.4ZM899.1 271.4 902.1 271.4 902.1 274.4 899.1 274.4ZM905.1 271.4 908.1 271.4 908.1 274.4 905.1 274.4ZM911.1 271.4 914.1 271.4 914.1 274.4 911.1 274.4ZM917.1 271.4 920.1 271.4 920.1 274.4 917.1 274.4ZM923.1 271.4 926.1 271.4 926.1 274.4 923.1 274.4ZM929.1 271.4 932.1 271.4 932.1 274.4 929.1 274.4ZM935.1 271.4 938.1 271.4 938.1 274.4 935.1 274.4ZM941.1 271.4 944.1 271.4 944.1 274.4 941.1 274.4ZM947.1 271.4 950.1 271.4 950.1 274.4 947.1 274.4ZM953.1 271.4 956.1 271.4 956.1 274.4 953.1 274.4ZM959.1 271.4 962.1 271.4 962.1 274.4 959.1 274.4ZM965.1 271.4 968.1 271.4 968.1 274.4 965.1 274.4ZM971.1 271.4 974.1 271.4 974.1 274.4 971.1 274.4ZM977.1 271.4 980.1 271.4 980.1 274.4 977.1 274.4ZM983.1 271.4 986.1 271.4 986.1 274.4 983.1 274.4ZM989.1 271.4 992.1 271.4 992.1 274.4 989.1 274.4ZM995.1 271.4 998.1 271.4 998.1 274.4 995.1 274.4ZM1001.1 271.4 1004.1 271.4 1004.1 274.4 1001.1 274.4ZM1007.1 271.4 1010.1 271.4 1010.1 274.4 1007.1 274.4ZM1013.1 271.4 1016.1 271.4 1016.1 274.4 1013.1 274.4ZM1019.1 271.4 1022.1 271.4 1022.1 274.4 1019.1 274.4ZM1025.1 271.4 1028.1 271.4 1028.1 274.4 1025.1 274.4ZM1031.1 271.4 1034.1 271.4 1034.1 274.4 1031.1 274.4ZM1033.93 271.233 1033.93 268.233 1036.93 268.233 1036.93 271.233ZM1033.93 265.233 1033.93 262.233 1036.93 262.233 1036.93 265.233ZM1030.93 262.5 1035.43 253.5 1039.93 262.5Z" fill="#404040"/><path d="M1032.87 437.5 1032.87 440.5 1029.87 440.5 1029.87 437.5ZM1032.87 443.5 1032.87 446.5 1029.87 446.5 1029.87 443.5ZM1032.87 449.5 1032.87 452.5 1029.87 452.5 1029.87 449.5ZM1032.87 455.5 1032.87 458.5 1029.87 458.5 1029.87 455.5ZM1032.87 461.5 1032.87 464.5 1029.87 464.5 1029.87 461.5ZM1029.67 467.3 1026.67 467.3 1026.67 464.3 1029.67 464.3ZM1023.67 467.3 1020.67 467.3 1020.67 464.3 1023.67 464.3ZM1017.67 467.3 1014.67 467.3 1014.67 464.3 1017.67 464.3ZM1011.67 467.3 1008.67 467.3 1008.67 464.3 1011.67 464.3ZM1005.67 467.3 1002.67 467.3 1002.67 464.3 1005.67 464.3ZM999.667 467.3 996.667 467.3 996.667 464.3 999.667 464.3ZM993.667 467.3 990.667 467.3 990.667 464.3 993.667 464.3ZM987.667 467.3 984.667 467.3 984.667 464.3 987.667 464.3ZM981.667 467.3 978.667 467.3 978.667 464.3 981.667 464.3ZM975.667 467.3 972.667 467.3 972.667 464.3 975.667 464.3ZM969.667 467.3 966.667 467.3 966.667 464.3 969.667 464.3ZM963.667 467.3 960.667 467.3 960.667 464.3 963.667 464.3ZM957.667 467.3 954.667 467.3 954.667 464.3 957.667 464.3ZM951.667 467.3 948.667 467.3 948.667 464.3 951.667 464.3ZM945.667 467.3 942.667 467.3 942.667 464.3 945.667 464.3ZM939.667 467.3 936.667 467.3 936.667 464.3 939.667 464.3ZM933.667 467.3 930.667 467.3 930.667 464.3 933.667 464.3ZM927.667 467.3 924.667 467.3 924.667 464.3 927.667 464.3ZM921.667 467.3 918.667 467.3 918.667 464.3 921.667 464.3ZM915.667 467.3 912.667 467.3 912.667 464.3 915.667 464.3ZM909.667 467.3 906.667 467.3 906.667 464.3 909.667 464.3ZM903.667 467.3 900.667 467.3 900.667 464.3 903.667 464.3ZM897.667 467.3 894.667 467.3 894.667 464.3 897.667 464.3ZM891.667 467.3 888.667 467.3 888.667 464.3 891.667 464.3ZM885.667 467.3 882.667 467.3 882.667 464.3 885.667 464.3ZM879.667 467.3 876.667 467.3 876.667 464.3 879.667 464.3ZM873.667 467.3 870.667 467.3 870.667 464.3 873.667 464.3ZM867.667 467.3 864.667 467.3 864.667 464.3 867.667 464.3ZM861.667 467.3 858.667 467.3 858.667 464.3 861.667 464.3ZM855.667 467.3 852.667 467.3 852.667 464.3 855.667 464.3ZM849.667 467.3 846.667 467.3 846.667 464.3 849.667 464.3ZM843.667 467.3 840.667 467.3 840.667 464.3 843.667 464.3ZM837.667 467.3 834.667 467.3 834.667 464.3 837.667 464.3ZM831.667 467.3 828.667 467.3 828.667 464.3 831.667 464.3ZM825.667 467.3 822.667 467.3 822.667 464.3 825.667 464.3ZM819.667 467.3 816.667 467.3 816.667 464.3 819.667 464.3ZM813.667 467.3 810.667 467.3 810.667 464.3 813.667 464.3ZM807.667 467.3 804.667 467.3 804.667 464.3 807.667 464.3ZM801.667 467.3 798.667 467.3 798.667 464.3 801.667 464.3ZM795.667 467.3 792.667 467.3 792.667 464.3 795.667 464.3ZM789.667 467.3 786.667 467.3 786.667 464.3 789.667 464.3ZM783.667 467.3 780.667 467.3 780.667 464.3 783.667 464.3ZM777.667 467.3 774.667 467.3 774.667 464.3 777.667 464.3ZM771.667 467.3 768.667 467.3 768.667 464.3 771.667 464.3ZM765.667 467.3 762.667 467.3 762.667 464.3 765.667 464.3ZM759.667 467.3 756.667 467.3 756.667 464.3 759.667 464.3ZM753.667 467.3 750.667 467.3 750.667 464.3 753.667 464.3ZM747.667 467.3 744.667 467.3 744.667 464.3 747.667 464.3ZM741.667 467.3 738.667 467.3 738.667 464.3 741.667 464.3ZM735.667 467.3 732.667 467.3 732.667 464.3 735.667 464.3ZM729.667 467.3 726.667 467.3 726.667 464.3 729.667 464.3ZM723.667 467.3 720.667 467.3 720.667 464.3 723.667 464.3ZM717.667 467.3 714.667 467.3 714.667 464.3 717.667 464.3ZM711.667 467.3 708.667 467.3 708.667 464.3 711.667 464.3ZM705.667 467.3 702.667 467.3 702.667 464.3 705.667 464.3ZM699.667 467.3 696.667 467.3 696.667 464.3 699.667 464.3ZM693.667 467.3 690.667 467.3 690.667 464.3 693.667 464.3ZM687.667 467.3 684.667 467.3 684.667 464.3 687.667 464.3ZM681.667 467.3 678.667 467.3 678.667 464.3 681.667 464.3ZM675.667 467.3 672.667 467.3 672.667 464.3 675.667 464.3ZM669.667 467.3 666.667 467.3 666.667 464.3 669.667 464.3ZM663.667 467.3 660.667 467.3 660.667 464.3 663.667 464.3ZM657.667 467.3 654.667 467.3 654.667 464.3 657.667 464.3ZM655 467.633 655 470.633 652 470.633 652 467.633ZM655 473.633 655 474.067 652 474.067 652 473.633ZM658 472.567 653.5 481.567 649 472.567Z" fill="#404040"/><path d="M146.5 321.5C146.5 317.634 149.634 314.5 153.5 314.5L181.5 314.5C185.366 314.5 188.5 317.634 188.5 321.5L188.5 419.5C188.5 423.366 185.366 426.5 181.5 426.5L153.5 426.5C149.634 426.5 146.5 423.366 146.5 419.5Z" stroke="#000000" stroke-width="1.33333" stroke-miterlimit="8" fill="none" fill-rule="evenodd"/><text font-family="Times New Roman,Times New Roman_MSFontService,sans-serif" font-weight="700" font-size="24" transform="matrix(-1.83697e-16 -1 1 -1.83697e-16 173.012 399)">Input</text><path d="M1115.5 320.5C1115.5 316.634 1118.63 313.5 1122.5 313.5L1150.5 313.5C1154.37 313.5 1157.5 316.634 1157.5 320.5L1157.5 410.5C1157.5 414.366 1154.37 417.5 1150.5 417.5L1122.5 417.5C1118.63 417.5 1115.5 414.366 1115.5 410.5Z" stroke="#000000" stroke-width="1.33333" stroke-miterlimit="8" fill="none" fill-rule="evenodd"/><text font-family="Times New Roman,Times New Roman_MSFontService,sans-serif" font-weight="700" font-size="24" transform="matrix(-1.83697e-16 -1 1 -1.83697e-16 1142.34 395)">Maps</text><text font-family="Times New Roman,Times New Roman_MSFontService,sans-serif" font-weight="700" font-size="19" transform="translate(168.84 37)">Global feature<tspan font-size="19" x="115.16" y="0">-</tspan><tspan font-size="19" x="121.327" y="0">aware block</tspan></text><g clip-path="url(#clip54)"><g clip-path="url(#clip55)" filter="url(#fx13)" transform="translate(145 478)"><g clip-path="url(#clip56)"><path d="M7.32848 26.6816C7.32848 15.9932 15.9931 7.32849 26.6815 7.32849L995.975 7.32849C1006.66 7.32849 1015.33 15.9932 1015.33 26.6816L1015.33 173.975C1015.33 184.664 1006.66 193.328 995.975 193.328L26.6815 193.328C15.9931 193.328 7.32848 184.664 7.32848 173.975Z" stroke="#B58B02" stroke-miterlimit="8" fill="#FEE695" fill-rule="evenodd"/></g></g></g><path d="M149.5 501.853C149.5 491.165 158.165 482.5 168.853 482.5L1138.15 482.5C1148.84 482.5 1157.5 491.165 1157.5 501.853L1157.5 649.147C1157.5 659.835 1148.84 668.5 1138.15 668.5L168.853 668.5C158.165 668.5 149.5 659.835 149.5 649.147Z" stroke="#B58B02" stroke-width="1.33333" stroke-miterlimit="8" fill="#FEE695" fill-rule="evenodd"/><path d="M0.00163901-1.5 968.693-0.441537 968.69 2.55846-0.00163901 1.5ZM967.205-3.44316 976.2 1.06667 967.195 5.55683Z" transform="matrix(1 0 0 -1 163.5 583.567)"/><path d="M267.167 652.5C262.933 652.5 259.5 649.068 259.5 644.833L259.5 532.167C259.5 527.933 262.933 524.5 267.167 524.5L297.833 524.5C302.068 524.5 305.5 527.933 305.5 532.167L305.5 644.833C305.5 649.068 302.068 652.5 297.833 652.5Z" stroke="#7F7F7F" stroke-width="1.33333" stroke-miterlimit="8" fill="#7F7F7F" fill-rule="evenodd"/><path d="M261.167 648.5C256.933 648.5 253.5 645.067 253.5 640.833L253.5 529.167C253.5 524.933 256.933 521.5 261.167 521.5L291.833 521.5C296.068 521.5 299.5 524.933 299.5 529.167L299.5 640.833C299.5 645.067 296.068 648.5 291.833 648.5Z" stroke="#000000" stroke-width="1.33333" stroke-miterlimit="8" fill="#8497B0" fill-rule="evenodd"/><text font-family="Times New Roman,Times New Roman_MSFontService,sans-serif" font-weight="400" font-size="19" transform="matrix(-1.83697e-16 -1 1 -1.83697e-16 283.133 637)">Convolution</text><path d="M207.167 651.5C202.933 651.5 199.5 648.067 199.5 643.833L199.5 532.167C199.5 527.933 202.933 524.5 207.167 524.5L237.833 524.5C242.068 524.5 245.5 527.933 245.5 532.167L245.5 643.833C245.5 648.067 242.068 651.5 237.833 651.5Z" stroke="#7F7F7F" stroke-width="1.33333" stroke-miterlimit="8" fill="#7F7F7F" fill-rule="evenodd"/><path d="M196.167 648.5C191.38 648.5 187.5 644.62 187.5 639.833L187.5 529.167C187.5 524.38 191.38 520.5 196.167 520.5L230.833 520.5C235.62 520.5 239.5 524.38 239.5 529.167L239.5 639.833C239.5 644.62 235.62 648.5 230.833 648.5Z" stroke="#000000" stroke-width="1.33333" stroke-miterlimit="8" fill="#ACD78E" fill-rule="evenodd"/><text font-family="Times New Roman,Times New Roman_MSFontService,sans-serif" font-weight="400" font-size="19" transform="matrix(-1.83697e-16 -1 1 -1.83697e-16 210.1 618)">Upsample<tspan font-size="19" x="33" y="22">8</tspan></text><path d="M333.167 651.5C328.933 651.5 325.5 648.067 325.5 643.833L325.5 532.167C325.5 527.933 328.933 524.5 333.167 524.5L363.833 524.5C368.068 524.5 371.5 527.933 371.5 532.167L371.5 643.833C371.5 648.067 368.068 651.5 363.833 651.5Z" stroke="#7F7F7F" stroke-width="1.33333" stroke-miterlimit="8" fill="#7F7F7F" fill-rule="evenodd"/><path d="M323.167 648.5C318.38 648.5 314.5 644.62 314.5 639.833L314.5 529.167C314.5 524.38 318.38 520.5 323.167 520.5L357.833 520.5C362.62 520.5 366.5 524.38 366.5 529.167L366.5 639.833C366.5 644.62 362.62 648.5 357.833 648.5Z" stroke="#000000" stroke-width="1.33333" stroke-miterlimit="8" fill="#F5B482" fill-rule="evenodd"/><text font-family="Times New Roman,Times New Roman_MSFontService,sans-serif" font-weight="400" font-size="19" transform="matrix(-1.83697e-16 -1 1 -1.83697e-16 336.833 612)">Dropout<tspan font-size="19" x="20" y="22">0.2</tspan></text><path d="M515.167 652.5C510.933 652.5 507.5 649.068 507.5 644.833L507.5 532.167C507.5 527.933 510.933 524.5 515.167 524.5L545.833 524.5C550.068 524.5 553.5 527.933 553.5 532.167L553.5 644.833C553.5 649.068 550.068 652.5 545.833 652.5Z" stroke="#7F7F7F" stroke-width="1.33333" stroke-miterlimit="8" fill="#7F7F7F" fill-rule="evenodd"/><path d="M510.167 648.5C505.933 648.5 502.5 645.067 502.5 640.833L502.5 529.167C502.5 524.933 505.933 521.5 510.167 521.5L540.833 521.5C545.068 521.5 548.5 524.933 548.5 529.167L548.5 640.833C548.5 645.067 545.068 648.5 540.833 648.5Z" stroke="#000000" stroke-width="1.33333" stroke-miterlimit="8" fill="#8497B0" fill-rule="evenodd"/><text font-family="Times New Roman,Times New Roman_MSFontService,sans-serif" font-weight="400" font-size="19" transform="matrix(-1.83697e-16 -1 1 -1.83697e-16 531.467 637)">Convolution</text><path d="M455.167 651.5C450.933 651.5 447.5 648.067 447.5 643.833L447.5 532.167C447.5 527.933 450.933 524.5 455.167 524.5L485.833 524.5C490.068 524.5 493.5 527.933 493.5 532.167L493.5 643.833C493.5 648.067 490.068 651.5 485.833 651.5Z" stroke="#7F7F7F" stroke-width="1.33333" stroke-miterlimit="8" fill="#7F7F7F" fill-rule="evenodd"/><path d="M444.334 648.5C439.455 648.5 435.5 644.545 435.5 639.667L435.5 529.333C435.5 524.455 439.455 520.5 444.334 520.5L479.667 520.5C484.545 520.5 488.5 524.455 488.5 529.333L488.5 639.667C488.5 644.545 484.545 648.5 479.667 648.5Z" stroke="#000000" stroke-width="1.33333" stroke-miterlimit="8" fill="#ACD78E" fill-rule="evenodd"/><text font-family="Times New Roman,Times New Roman_MSFontService,sans-serif" font-weight="400" font-size="19" transform="matrix(-1.83697e-16 -1 1 -1.83697e-16 458.433 618)">Upsample<tspan font-size="19" x="28" y="22">15</tspan></text><path d="M582.167 651.5C577.933 651.5 574.5 648.067 574.5 643.833L574.5 532.167C574.5 527.933 577.933 524.5 582.167 524.5L612.833 524.5C617.068 524.5 620.5 527.933 620.5 532.167L620.5 643.833C620.5 648.067 617.068 651.5 612.833 651.5Z" stroke="#7F7F7F" stroke-width="1.33333" stroke-miterlimit="8" fill="#7F7F7F" fill-rule="evenodd"/><path d="M571.334 648.5C566.455 648.5 562.5 644.545 562.5 639.667L562.5 529.333C562.5 524.455 566.455 520.5 571.334 520.5L606.667 520.5C611.545 520.5 615.5 524.455 615.5 529.333L615.5 639.667C615.5 644.545 611.545 648.5 606.667 648.5Z" stroke="#000000" stroke-width="1.33333" stroke-miterlimit="8" fill="#F5B482" fill-rule="evenodd"/><text font-family="Times New Roman,Times New Roman_MSFontService,sans-serif" font-weight="400" font-size="19" transform="matrix(-1.83697e-16 -1 1 -1.83697e-16 585.167 612)">Dropout<tspan font-size="19" x="20" y="22">0.2</tspan></text><path d="M764 652.5C759.858 652.5 756.5 649.142 756.5 645L756.5 532C756.5 527.858 759.858 524.5 764 524.5L794 524.5C798.142 524.5 801.5 527.858 801.5 532L801.5 645C801.5 649.142 798.142 652.5 794 652.5Z" stroke="#7F7F7F" stroke-width="1.33333" stroke-miterlimit="8" fill="#7F7F7F" fill-rule="evenodd"/><path d="M758.167 648.5C753.933 648.5 750.5 645.068 750.5 640.833L750.5 528.167C750.5 523.933 753.933 520.5 758.167 520.5L788.833 520.5C793.068 520.5 796.5 523.933 796.5 528.167L796.5 640.833C796.5 645.068 793.068 648.5 788.833 648.5Z" stroke="#000000" stroke-width="1.33333" stroke-miterlimit="8" fill="#8497B0" fill-rule="evenodd"/><text font-family="Times New Roman,Times New Roman_MSFontService,sans-serif" font-weight="400" font-size="19" transform="matrix(-1.83697e-16 -1 1 -1.83697e-16 779.8 637)">Convolution</text><path d="M703.167 651.5C698.933 651.5 695.5 648.068 695.5 643.833L695.5 531.167C695.5 526.933 698.933 523.5 703.167 523.5L733.833 523.5C738.068 523.5 741.5 526.933 741.5 531.167L741.5 643.833C741.5 648.068 738.068 651.5 733.833 651.5Z" stroke="#7F7F7F" stroke-width="1.33333" stroke-miterlimit="8" fill="#7F7F7F" fill-rule="evenodd"/><path d="M692.334 648.5C687.455 648.5 683.5 644.545 683.5 639.667L683.5 529.333C683.5 524.455 687.455 520.5 692.334 520.5L727.667 520.5C732.545 520.5 736.5 524.455 736.5 529.333L736.5 639.667C736.5 644.545 732.545 648.5 727.667 648.5Z" stroke="#000000" stroke-width="1.33333" stroke-miterlimit="8" fill="#ACD78E" fill-rule="evenodd"/><text font-family="Times New Roman,Times New Roman_MSFontService,sans-serif" font-weight="400" font-size="19" transform="matrix(-1.83697e-16 -1 1 -1.83697e-16 706.767 618)">Upsample<tspan font-size="19" x="29" y="22">32</tspan></text><path d="M830.167 651.5C825.933 651.5 822.5 648.068 822.5 643.833L822.5 531.167C822.5 526.933 825.933 523.5 830.167 523.5L860.833 523.5C865.068 523.5 868.5 526.933 868.5 531.167L868.5 643.833C868.5 648.068 865.068 651.5 860.833 651.5Z" stroke="#7F7F7F" stroke-width="1.33333" stroke-miterlimit="8" fill="#7F7F7F" fill-rule="evenodd"/><path d="M819.334 648.5C814.455 648.5 810.5 644.545 810.5 639.667L810.5 529.333C810.5 524.455 814.455 520.5 819.334 520.5L854.667 520.5C859.545 520.5 863.5 524.455 863.5 529.333L863.5 639.667C863.5 644.545 859.545 648.5 854.667 648.5Z" stroke="#000000" stroke-width="1.33333" stroke-miterlimit="8" fill="#F5B482" fill-rule="evenodd"/><text font-family="Times New Roman,Times New Roman_MSFontService,sans-serif" font-weight="400" font-size="19" transform="matrix(-1.83697e-16 -1 1 -1.83697e-16 833.5 611)">Dropout<tspan font-size="19" x="19" y="22">0.2</tspan></text><path d="M1012.17 649.5C1007.93 649.5 1004.5 646.068 1004.5 641.833L1004.5 529.167C1004.5 524.933 1007.93 521.5 1012.17 521.5L1042.83 521.5C1047.07 521.5 1050.5 524.933 1050.5 529.167L1050.5 641.833C1050.5 646.068 1047.07 649.5 1042.83 649.5Z" stroke="#7F7F7F" stroke-width="1.33333" stroke-miterlimit="8" fill="#7F7F7F" fill-rule="evenodd"/><path d="M1006.17 645.5C1001.93 645.5 998.5 642.068 998.5 637.833L998.5 525.167C998.5 520.933 1001.93 517.5 1006.17 517.5L1036.83 517.5C1041.07 517.5 1044.5 520.933 1044.5 525.167L1044.5 637.833C1044.5 642.068 1041.07 645.5 1036.83 645.5Z" stroke="#000000" stroke-width="1.33333" stroke-miterlimit="8" fill="#8497B0" fill-rule="evenodd"/><text font-family="Times New Roman,Times New Roman_MSFontService,sans-serif" font-weight="400" font-size="19" transform="matrix(-1.83697e-16 -1 1 -1.83697e-16 1028.13 634)">Convolution</text><path d="M952.167 648.5C947.933 648.5 944.5 645.068 944.5 640.833L944.5 528.167C944.5 523.933 947.933 520.5 952.167 520.5L982.833 520.5C987.068 520.5 990.5 523.933 990.5 528.167L990.5 640.833C990.5 645.068 987.068 648.5 982.833 648.5Z" stroke="#7F7F7F" stroke-width="1.33333" stroke-miterlimit="8" fill="#7F7F7F" fill-rule="evenodd"/><path d="M941.167 645.5C936.38 645.5 932.5 641.62 932.5 636.833L932.5 526.167C932.5 521.38 936.38 517.5 941.167 517.5L975.833 517.5C980.62 517.5 984.5 521.38 984.5 526.167L984.5 636.833C984.5 641.62 980.62 645.5 975.833 645.5Z" stroke="#000000" stroke-width="1.33333" stroke-miterlimit="8" fill="#ACD78E" fill-rule="evenodd"/><text font-family="Times New Roman,Times New Roman_MSFontService,sans-serif" font-weight="400" font-size="19" transform="matrix(-1.83697e-16 -1 1 -1.83697e-16 955.1 615)">Upsample<tspan font-size="19" x="29" y="22">56</tspan></text><path d="M1072.17 650.5C1067.93 650.5 1064.5 647.068 1064.5 642.833L1064.5 530.167C1064.5 525.933 1067.93 522.5 1072.17 522.5L1102.83 522.5C1107.07 522.5 1110.5 525.933 1110.5 530.167L1110.5 642.833C1110.5 647.068 1107.07 650.5 1102.83 650.5Z" stroke="#7F7F7F" stroke-width="1.33333" stroke-miterlimit="8" fill="#7F7F7F" fill-rule="evenodd"/><path d="M1067.17 646.5C1062.93 646.5 1059.5 643.068 1059.5 638.833L1059.5 526.167C1059.5 521.933 1062.93 518.5 1067.17 518.5L1097.83 518.5C1102.07 518.5 1105.5 521.933 1105.5 526.167L1105.5 638.833C1105.5 643.068 1102.07 646.5 1097.83 646.5Z" stroke="#000000" stroke-width="1.33333" stroke-miterlimit="8" fill="#8497B0" fill-rule="evenodd"/><text font-family="Times New Roman,Times New Roman_MSFontService,sans-serif" font-weight="400" font-size="19" transform="matrix(-1.83697e-16 -1 1 -1.83697e-16 1088.33 635)">Convolution</text><text font-family="Times New Roman,Times New Roman_MSFontService,sans-serif" font-weight="700" font-size="19" transform="translate(605.55 504)">Decoder<tspan font-size="19" x="-58.9967" y="-469">Global feature extraction block</tspan><tspan font-size="19" x="332.27" y="-470">Local feature constraint </tspan><tspan font-size="19" x="406.27" y="-448">block</tspan></text></g></svg>